<svg xmlns="http://www.w3.org/2000/svg"
    viewBox="0 0 1200 1780" width="1200" height="1780">
  <defs>
    <style>
      .stanza { fill:#fff; stroke:#2c3e50; stroke-width:3; }
      .stanza.ingresso { fill:#a9dfbf; stroke:#2ecc71; }
      .stanza.uscita { fill:#f5b7b1; stroke:#e74c3c; }
      .stanza.bagno { fill:#aed6f1; stroke:#3498db; }
      .stanza.servizio { fill:#fad7a0; stroke:#f39c12; }

      .stanza-label { font:bold 14px Arial; fill:#2c3e50; }

      .corridoio { fill:#ecf0f1; stroke:#95a5a6; stroke-width:2; }

      .oggetto { fill:#3498db; stroke:#2980b9; stroke-width:2; }
      .oggetto-label { font:10px Arial; fill:black; text-anchor:middle; }

      .conn-obj {
        stroke:#e74c3c;
        stroke-width:3;
        fill:none;
        stroke-dasharray:8,5;
        marker-end:url(#arrow-red);
      }

      .conn-obj-debug {
        stroke:black;
        stroke-width:3;
        fill:none;
        stroke-dasharray:4,4;
        marker-end:url(#arrow-black);
      }
    </style>

    <marker id="arrow-red" markerWidth="12" markerHeight="12"
            refX="10" refY="4" orient="auto">
      <polygon points="0 0, 12 4, 0 8" fill="#e74c3c"/>
    </marker>

    <marker id="arrow-black" markerWidth="12" markerHeight="12"
            refX="10" refY="4" orient="auto">
      <polygon points="0 0, 12 4, 0 8" fill="black"/>
    </marker>
  </defs>

<rect x="440" y="120" width="220" height="180" rx="8" class="stanza ingresso"/>
<text x="550.0" y="114" class="stanza-label" text-anchor="middle">IN</text>
<rect x="440" y="440" width="220" height="180" rx="8" class="stanza"/>
<text x="550.0" y="434" class="stanza-label" text-anchor="middle">stanza 1</text>
<rect x="440" y="760" width="220" height="180" rx="8" class="stanza"/>
<text x="550.0" y="754" class="stanza-label" text-anchor="middle">stanza 2</text>
<rect x="440" y="1080" width="220" height="180" rx="8" class="stanza"/>
<text x="550.0" y="1074" class="stanza-label" text-anchor="middle">stanza 3</text>
<rect x="780" y="760" width="220" height="180" rx="8" class="stanza bagno"/>
<text x="890.0" y="754" class="stanza-label" text-anchor="middle">WC</text>
<rect x="780" y="1080" width="220" height="180" rx="8" class="stanza servizio"/>
<text x="890.0" y="1074" class="stanza-label" text-anchor="middle">SHOP</text>
<rect x="440" y="1400" width="220" height="180" rx="8" class="stanza uscita"/>
<text x="550.0" y="1394" class="stanza-label" text-anchor="middle">OUT</text>
<rect x="530.0" y="300" width="40" height="140" class="corridoio"/>
<rect x="530.0" y="620" width="40" height="140" class="corridoio"/>
<rect x="660" y="830.0" width="120" height="40" class="corridoio"/>
<rect x="530.0" y="940" width="40" height="140" class="corridoio"/>
<rect x="660" y="1150.0" width="120" height="40" class="corridoio"/>
<rect x="530.0" y="1260" width="40" height="140" class="corridoio"/>
<rect x="870.0" y="940" width="40" height="140" class="corridoio"/>
<circle cx="604.0" cy="530.0" r="10" class="oggetto"/>
<text x="604.0" y="533.0" class="oggetto-label">sarcofago</text>
<circle cx="604.0" cy="850.0" r="10" class="oggetto"/>
<text x="604.0" y="853.0" class="oggetto-label">collana</text>
<circle cx="496.0" cy="850.0" r="10" class="oggetto"/>
<text x="496.0" y="853.0" class="oggetto-label">scettro</text>
<circle cx="604.0" cy="1170.0" r="10" class="oggetto"/>
<text x="604.0" y="1173.0" class="oggetto-label">maschera</text>
<circle cx="496.0" cy="530.0" r="10" class="oggetto"/>
<text x="496.0" y="533.0" class="oggetto-label">mummia</text>
<path d="M 496.0 530.0 L 550.0 620.0 L 550.0 690.0 L 550.0 760.0 L 604.0 850.0" class="conn-obj"/></svg>